<svg xmlns="http://www.w3.org/2000/svg" version="1.1" width="512" height="512" x="0" y="0" viewBox="0 0 469.333 469.333" style="enable-background:new 0 0 512 512" xml:space="preserve"><g><path d="M437.332 192h-160V32c0-17.664-14.336-32-32-32H224c-17.664 0-32 14.336-32 32v160H32c-17.664 0-32 14.336-32 32v21.332c0 17.664 14.336 32 32 32h160v160c0 17.664 14.336 32 32 32h21.332c17.664 0 32-14.336 32-32v-160h160c17.664 0 32-14.336 32-32V224c0-17.664-14.336-32-32-32zm0 0" fill="#000000" opacity="1" data-original="#000000"></path></g></svg>